<?xml version="1.0" encoding="UTF-8" standalone="no"?>
<svg
   version="1.2"
   width="1.9892621mm"
   height="7.9219022mm"
   viewBox="0 0 1.132 4.5079998"
   id="svg3"
   sodipodi:docname="flag_sixtyfourth_down.svg"
   inkscape:version="1.4.2 (f4327f4, 2025-05-13)"
   xmlns:inkscape="http://www.inkscape.org/namespaces/inkscape"
   xmlns:sodipodi="http://sodipodi.sourceforge.net/DTD/sodipodi-0.dtd"
   xmlns:xlink="http://www.w3.org/1999/xlink"
   xmlns="http://www.w3.org/2000/svg"
   xmlns:svg="http://www.w3.org/2000/svg">
  <defs
     id="defs3" />
  <sodipodi:namedview
     id="namedview3"
     pagecolor="#505050"
     bordercolor="#eeeeee"
     borderopacity="1"
     inkscape:showpageshadow="0"
     inkscape:pageopacity="0"
     inkscape:pagecheckerboard="0"
     inkscape:deskcolor="#505050"
     inkscape:document-units="mm"
     inkscape:zoom="1.0467522"
     inkscape:cx="359.2063"
     inkscape:cy="535.46577"
     inkscape:window-width="933"
     inkscape:window-height="1211"
     inkscape:window-x="1147"
     inkscape:window-y="90"
     inkscape:window-maximized="0"
     inkscape:current-layer="svg3" />
  <style
     type="text/css"
     id="style1"><![CDATA[
tspan { white-space: pre; }
]]></style>
  <g
     transform="translate(0.064,4.508)"
     id="g1">
    <path
       transform="scale(0.004,-0.004)"
       d="M -16,0 V 1000 H 0 V 875 c 97,23 224,73 224,165 0,22 -7,43 -7,64 0,14 12,23 24,23 7,0 14,-4 19,-12 4,-25 7,-50 7,-75 0,-30 -9,-55 -23,-78 11,-36 17,-73 17,-110 0,-31 -8,-59 -22,-84 11,-35 17,-72 17,-109 0,-36 -10,-69 -27,-98 7,-35 12,-70 12,-105 C 241,275 0,185 0,4 V 0 Z M 0,204 c 86,60 199,149 199,252 0,19 -2,37 -5,55 C 118,420 0,348 0,225 Z m 0,221 c 92,51 214,131 214,234 0,21 -3,42 -8,63 C 129,635 0,572 0,450 Z m 0,225 c 95,38 219,104 219,202 0,23 -3,46 -9,68 C 132,843 0,792 0,675 Z"
       fill="currentColor"
       id="path1" />
  </g>
  <g
     transform="translate(28.9435,161.2326)"
     id="g2"
     style="display:none">
    <a
       xlink:href="https://lilypond.org/"
       id="a1">
      <rect
         x="0"
         y="-0.47479999"
         width="50.361401"
         height="2.0023999"
         fill="none"
         stroke="none"
         stroke-width="0"
         id="rect1" />
    </a>
  </g>
  <g
     transform="translate(28.9435,161.2326)"
     id="g3"
     style="display:none">
    <text
       font-family="serif"
       font-size="2.2001px"
       text-anchor="start"
       fill="currentColor"
       id="text2"><tspan
         id="tspan2">Music engraving by LilyPond 2.24.4—www.lilypond.org</tspan></text>
  </g>
</svg>
