<?xml version="1.0" encoding="UTF-8" standalone="no"?>
<svg
   version="1.2"
   width="1.5675104mm"
   height="9.2363615mm"
   viewBox="0 0 0.89199998 5.2559997"
   id="svg3"
   sodipodi:docname="flag_sixtyfourth_up.svg"
   inkscape:version="1.4.2 (f4327f4, 2025-05-13)"
   xmlns:inkscape="http://www.inkscape.org/namespaces/inkscape"
   xmlns:sodipodi="http://sodipodi.sourceforge.net/DTD/sodipodi-0.dtd"
   xmlns:xlink="http://www.w3.org/1999/xlink"
   xmlns="http://www.w3.org/2000/svg"
   xmlns:svg="http://www.w3.org/2000/svg">
  <defs
     id="defs3" />
  <sodipodi:namedview
     id="namedview3"
     pagecolor="#505050"
     bordercolor="#eeeeee"
     borderopacity="1"
     inkscape:showpageshadow="0"
     inkscape:pageopacity="0"
     inkscape:pagecheckerboard="0"
     inkscape:deskcolor="#505050"
     inkscape:document-units="mm"
     inkscape:zoom="1.0467522"
     inkscape:cx="359.68397"
     inkscape:cy="535.46577"
     inkscape:window-width="1256"
     inkscape:window-height="1003"
     inkscape:window-x="1280"
     inkscape:window-y="99"
     inkscape:window-maximized="0"
     inkscape:current-layer="svg3" />
  <style
     type="text/css"
     id="style1"><![CDATA[
tspan { white-space: pre; }
]]></style>
  <g
     transform="translate(0.064)"
     id="g1">
    <path
       transform="scale(0.004,-0.004)"
       d="M -16,0 H 0 c 0,-177 191,-297 191,-474 0,-31 -7,-62 -19,-90 17,-35 29,-72 29,-113 0,-39 -10,-77 -28,-112 17,-35 28,-72 28,-113 0,-33 -13,-65 -34,-91 24,-41 40,-85 40,-134 0,-61 -15,-121 -41,-176 -5,-8 -13,-11 -20,-11 -13,0 -26,11 -23,27 26,50 42,104 42,160 0,93 -94,180 -165,240 v -113 H -16 Z M 0,-213 v -13 c 0,-111 85,-195 144,-287 3,13 5,26 5,39 0,95 -85,191 -149,261 z m 0,-225 v -13 c 0,-113 87,-197 146,-291 8,21 13,43 13,65 0,91 -91,178 -159,239 z m 0,-224 v -13 c 0,-109 82,-191 143,-280 10,16 16,34 16,53 0,91 -91,179 -159,240 z"
       fill="currentColor"
       id="path1" />
  </g>
  <g
     transform="translate(28.9435,161.2099)"
     id="g2"
     style="display:none">
    <a
       xlink:href="https://lilypond.org/"
       id="a1">
      <rect
         x="0"
         y="-0.47479999"
         width="50.361401"
         height="2.0023999"
         fill="none"
         stroke="none"
         stroke-width="0"
         id="rect1" />
    </a>
  </g>
  <g
     transform="translate(28.9435,161.2099)"
     id="g3"
     style="display:none">
    <text
       font-family="serif"
       font-size="2.2001px"
       text-anchor="start"
       fill="currentColor"
       id="text2"><tspan
         id="tspan2">Music engraving by LilyPond 2.24.4—www.lilypond.org</tspan></text>
  </g>
</svg>
