<?xml version="1.0" encoding="UTF-8" standalone="no"?>
<svg
   version="1.2"
   width="1.9892621mm"
   height="6.6004138mm"
   viewBox="0 0 1.132 3.7559999"
   id="svg3"
   sodipodi:docname="flag_thirtysecond_down.svg"
   inkscape:version="1.4.2 (f4327f4, 2025-05-13)"
   xmlns:inkscape="http://www.inkscape.org/namespaces/inkscape"
   xmlns:sodipodi="http://sodipodi.sourceforge.net/DTD/sodipodi-0.dtd"
   xmlns:xlink="http://www.w3.org/1999/xlink"
   xmlns="http://www.w3.org/2000/svg"
   xmlns:svg="http://www.w3.org/2000/svg">
  <defs
     id="defs3" />
  <sodipodi:namedview
     id="namedview3"
     pagecolor="#505050"
     bordercolor="#eeeeee"
     borderopacity="1"
     inkscape:showpageshadow="0"
     inkscape:pageopacity="0"
     inkscape:pagecheckerboard="0"
     inkscape:deskcolor="#505050"
     inkscape:document-units="mm"
     inkscape:zoom="1.0467522"
     inkscape:cx="359.2063"
     inkscape:cy="535.46577"
     inkscape:window-width="933"
     inkscape:window-height="1211"
     inkscape:window-x="1238"
     inkscape:window-y="94"
     inkscape:window-maximized="0"
     inkscape:current-layer="svg3" />
  <style
     type="text/css"
     id="style1"><![CDATA[
tspan { white-space: pre; }
]]></style>
  <g
     transform="translate(0.064,3.756)"
     id="g1">
    <path
       transform="scale(0.004,-0.004)"
       d="m 0,205 c 89,50 206,128 206,228 0,22 -3,44 -8,66 C 121,411 0,342 0,220 Z m 267,659 c 0,-38 -12,-70 -30,-100 16,-38 24,-79 24,-120 0,-38 -12,-70 -30,-100 11,-36 17,-73 17,-111 C 248,255 0,178 0,0 H -16 V 750 H 0 V 645 c 97,44 224,117 224,219 0,18 -9,35 -9,53 0,14 11,22 23,22 27,0 29,-51 29,-75 z M 0,425 c 95,45 219,118 219,219 0,27 -5,54 -14,79 C 126,633 0,565 0,440 Z"
       fill="currentColor"
       id="path1" />
  </g>
  <g
     transform="translate(28.9435,161.2306)"
     id="g2"
     style="display:none">
    <a
       xlink:href="https://lilypond.org/"
       id="a1">
      <rect
         x="0"
         y="-0.47479999"
         width="50.361401"
         height="2.0023999"
         fill="none"
         stroke="none"
         stroke-width="0"
         id="rect1" />
    </a>
  </g>
  <g
     transform="translate(28.9435,161.2306)"
     id="g3"
     style="display:none">
    <text
       font-family="serif"
       font-size="2.2001px"
       text-anchor="start"
       fill="currentColor"
       id="text2"><tspan
         id="tspan2">Music engraving by LilyPond 2.24.4—www.lilypond.org</tspan></text>
  </g>
</svg>
