<?xml version="1.0" encoding="UTF-8" standalone="no"?>
<svg
   version="1.2"
   width="2.6148605mm"
   height="3.5145974mm"
   viewBox="0 0 1.4880001 2"
   id="svg3"
   sodipodi:docname="number_8.svg"
   inkscape:version="1.4.2 (f4327f4, 2025-05-13)"
   xmlns:inkscape="http://www.inkscape.org/namespaces/inkscape"
   xmlns:sodipodi="http://sodipodi.sourceforge.net/DTD/sodipodi-0.dtd"
   xmlns:xlink="http://www.w3.org/1999/xlink"
   xmlns="http://www.w3.org/2000/svg"
   xmlns:svg="http://www.w3.org/2000/svg">
  <defs
     id="defs3" />
  <sodipodi:namedview
     id="namedview3"
     pagecolor="#505050"
     bordercolor="#eeeeee"
     borderopacity="1"
     inkscape:showpageshadow="0"
     inkscape:pageopacity="0"
     inkscape:pagecheckerboard="0"
     inkscape:deskcolor="#505050"
     inkscape:document-units="mm"
     inkscape:zoom="1.0467522"
     inkscape:cx="358.25096"
     inkscape:cy="535.46577"
     inkscape:window-width="933"
     inkscape:window-height="1211"
     inkscape:window-x="1268"
     inkscape:window-y="50"
     inkscape:window-maximized="0"
     inkscape:current-layer="svg3" />
  <style
     type="text/css"
     id="style1"><![CDATA[
tspan { white-space: pre; }
]]></style>
  <g
     transform="translate(0,2)"
     id="g1">
    <path
       transform="scale(0.004,-0.004)"
       d="m 261,287 c 25,30 44,64 44,103 0,54 -55,87 -114,87 -46,0 -73,-36 -73,-71 0,-21 10,-42 31,-54 z m 31,-18 C 346,238 372,190 372,144 372,71 306,0 183,0 89,0 0,54 0,140 c 0,50 36,87 72,123 -37,28 -55,66 -55,103 0,68 60,134 174,134 80,0 157,-39 157,-110 0,-46 -25,-86 -56,-121 z M 103,244 C 72,214 44,183 44,140 44,71 110,23 183,23 c 54,0 86,42 86,83 0,24 -10,48 -35,62 z"
       fill="currentColor"
       id="path1" />
  </g>
  <g
     transform="translate(28.8795,161.2749)"
     id="g2"
     style="display:none">
    <a
       xlink:href="https://lilypond.org/"
       id="a1">
      <rect
         x="0"
         y="-0.47479999"
         width="50.361401"
         height="2.0023999"
         fill="none"
         stroke="none"
         stroke-width="0"
         id="rect1" />
    </a>
  </g>
  <g
     transform="translate(28.8795,161.2749)"
     id="g3"
     style="display:none">
    <text
       font-family="serif"
       font-size="2.2001px"
       text-anchor="start"
       fill="currentColor"
       id="text2"><tspan
         id="tspan2">Music engraving by LilyPond 2.24.4—www.lilypond.org</tspan></text>
  </g>
</svg>
