<?xml version="1.0" encoding="UTF-8" standalone="no"?>
<svg
   version="1.2"
   width="2.3407218mm"
   height="3.5145974mm"
   viewBox="0 0 1.332 2"
   id="svg3"
   sodipodi:docname="number_3.svg"
   inkscape:version="1.4.2 (f4327f4, 2025-05-13)"
   xmlns:inkscape="http://www.inkscape.org/namespaces/inkscape"
   xmlns:sodipodi="http://sodipodi.sourceforge.net/DTD/sodipodi-0.dtd"
   xmlns:xlink="http://www.w3.org/1999/xlink"
   xmlns="http://www.w3.org/2000/svg"
   xmlns:svg="http://www.w3.org/2000/svg">
  <defs
     id="defs3" />
  <sodipodi:namedview
     id="namedview3"
     pagecolor="#505050"
     bordercolor="#eeeeee"
     borderopacity="1"
     inkscape:showpageshadow="0"
     inkscape:pageopacity="0"
     inkscape:pagecheckerboard="0"
     inkscape:deskcolor="#505050"
     inkscape:document-units="mm"
     inkscape:zoom="1.0467522"
     inkscape:cx="358.25096"
     inkscape:cy="535.46577"
     inkscape:window-width="933"
     inkscape:window-height="1211"
     inkscape:window-x="1517"
     inkscape:window-y="52"
     inkscape:window-maximized="0"
     inkscape:current-layer="svg3" />
  <style
     type="text/css"
     id="style1"><![CDATA[
tspan { white-space: pre; }
]]></style>
  <g
     transform="translate(0,2)"
     id="g1">
    <path
       transform="scale(0.004,-0.004)"
       d="m 150,477 c -28,0 -57,-9 -57,-33 0,-22 35,-25 35,-47 0,-32 -25,-58 -57,-58 -32,0 -58,26 -58,58 0,64 67,103 137,103 91,0 169,-33 169,-114 0,-43 -4,-82 -42,-100 -9,-4 -14,-12 -14,-21 0,-9 5,-18 14,-22 41,-19 56,-57 56,-103 C 333,48 254,0 154,0 75,0 0,42 0,113 c 0,36 30,66 66,66 36,0 65,-30 65,-66 0,-25 -40,-28 -40,-53 0,-27 32,-37 63,-37 49,0 63,61 63,117 v 16 c 0,54 -2,94 -50,94 H 87 c -10,0 -14,8 -14,15 0,7 4,14 14,14 h 80 c 49,0 50,43 50,99 v 8 c 0,54 -18,91 -67,91 z"
       fill="currentColor"
       id="path1" />
  </g>
  <g
     transform="translate(28.8795,161.2749)"
     id="g2"
     style="display:none">
    <a
       xlink:href="https://lilypond.org/"
       id="a1">
      <rect
         x="0"
         y="-0.47479999"
         width="50.361401"
         height="2.0023999"
         fill="none"
         stroke="none"
         stroke-width="0"
         id="rect1" />
    </a>
  </g>
  <g
     transform="translate(28.8795,161.2749)"
     id="g3"
     style="display:none">
    <text
       font-family="serif"
       font-size="2.2001px"
       text-anchor="start"
       fill="currentColor"
       id="text2"><tspan
         id="tspan2">Music engraving by LilyPond 2.24.4—www.lilypond.org</tspan></text>
  </g>
</svg>
