<?xml version="1.0" encoding="UTF-8" standalone="no"?>
<svg
   version="1.2"
   width="2.3899262mm"
   height="3.5145974mm"
   viewBox="0 0 1.36 2"
   id="svg3"
   sodipodi:docname="number_6.svg"
   inkscape:version="1.4.2 (f4327f4, 2025-05-13)"
   xmlns:inkscape="http://www.inkscape.org/namespaces/inkscape"
   xmlns:sodipodi="http://sodipodi.sourceforge.net/DTD/sodipodi-0.dtd"
   xmlns:xlink="http://www.w3.org/1999/xlink"
   xmlns="http://www.w3.org/2000/svg"
   xmlns:svg="http://www.w3.org/2000/svg">
  <defs
     id="defs3" />
  <sodipodi:namedview
     id="namedview3"
     pagecolor="#505050"
     bordercolor="#eeeeee"
     borderopacity="1"
     inkscape:showpageshadow="0"
     inkscape:pageopacity="0"
     inkscape:pagecheckerboard="0"
     inkscape:deskcolor="#505050"
     inkscape:document-units="mm"
     inkscape:zoom="1.0467522"
     inkscape:cx="358.25096"
     inkscape:cy="535.46577"
     inkscape:window-width="933"
     inkscape:window-height="1211"
     inkscape:window-x="1250"
     inkscape:window-y="102"
     inkscape:window-maximized="0"
     inkscape:current-layer="svg3" />
  <style
     type="text/css"
     id="style1"><![CDATA[
tspan { white-space: pre; }
]]></style>
  <g
     transform="translate(0,2)"
     id="g1">
    <path
       transform="scale(0.004,-0.004)"
       d="m 170,259 c -51,0 -53,-43 -53,-100 v -18 -18 c 0,-57 2,-100 53,-100 57,0 61,51 61,118 0,67 -4,118 -61,118 z m -53,7 c 15,10 33,16 53,16 101,0 170,-46 170,-141 C 340,46 271,0 170,0 58,0 0,124 0,250 c 0,128 72,250 190,250 70,0 136,-39 136,-103 0,-36 -29,-66 -65,-66 -36,0 -66,30 -66,66 0,24 40,25 40,49 0,20 -23,31 -45,31 -66,0 -75,-65 -75,-139 0,-24 2,-48 2,-72 z"
       fill="currentColor"
       id="path1" />
  </g>
  <g
     transform="translate(28.8795,161.2749)"
     id="g2"
     style="display:none">
    <a
       xlink:href="https://lilypond.org/"
       id="a1">
      <rect
         x="0"
         y="-0.47479999"
         width="50.361401"
         height="2.0023999"
         fill="none"
         stroke="none"
         stroke-width="0"
         id="rect1" />
    </a>
  </g>
  <g
     transform="translate(28.8795,161.2749)"
     id="g3"
     style="display:none">
    <text
       font-family="serif"
       font-size="2.2001px"
       text-anchor="start"
       fill="currentColor"
       id="text2"><tspan
         id="tspan2">Music engraving by LilyPond 2.24.4—www.lilypond.org</tspan></text>
  </g>
</svg>
