<?xml version="1.0" encoding="UTF-8" standalone="no"?>
<svg
   version="1.2"
   width="2.5305102mm"
   height="3.5187171mm"
   viewBox="0 0 1.4400001 2.0023443"
   id="svg3"
   sodipodi:docname="number_7.svg"
   inkscape:version="1.4.2 (f4327f4, 2025-05-13)"
   xmlns:inkscape="http://www.inkscape.org/namespaces/inkscape"
   xmlns:sodipodi="http://sodipodi.sourceforge.net/DTD/sodipodi-0.dtd"
   xmlns:xlink="http://www.w3.org/1999/xlink"
   xmlns="http://www.w3.org/2000/svg"
   xmlns:svg="http://www.w3.org/2000/svg">
  <defs
     id="defs3" />
  <sodipodi:namedview
     id="namedview3"
     pagecolor="#505050"
     bordercolor="#eeeeee"
     borderopacity="1"
     inkscape:showpageshadow="0"
     inkscape:pageopacity="0"
     inkscape:pagecheckerboard="0"
     inkscape:deskcolor="#505050"
     inkscape:document-units="mm"
     inkscape:zoom="1.0467522"
     inkscape:cx="358.25096"
     inkscape:cy="535.46577"
     inkscape:window-width="933"
     inkscape:window-height="1211"
     inkscape:window-x="1244"
     inkscape:window-y="99"
     inkscape:window-maximized="0"
     inkscape:current-layer="svg3" />
  <style
     type="text/css"
     id="style1"><![CDATA[
tspan { white-space: pre; }
]]></style>
  <g
     transform="translate(0,2)"
     id="g1">
    <path
       transform="scale(0.004,-0.004)"
       d="M 71,412 C 37,412 29,370 29,340 v -75 c 0,-10 -7,-15 -14,-15 -7,0 -15,5 -15,15 v 220 c 0,10 8,15 15,15 7,0 14,-5 14,-15 v -14 c 0,-9 12,-19 15,-15 20,29 52,44 85,44 28,0 56,-11 77,-32 13,-13 31,-19 48,-19 29,0 59,17 79,45 3,5 7,6 11,6 8,0 16,-6 16,-14 0,-3 -1,-6 -3,-9 C 274,359 196,229 196,91 196,67 199,41 204,16 206,6 198,-3 188,0 165,7 141,13 117,13 93,13 69,7 46,0 35,-3 25,6 29,16 c 55,130 136,246 219,360 -21,-11 -41,-17 -61,-17 -23,0 -44,8 -63,27 -16,16 -36,26 -53,26 z"
       fill="currentColor"
       id="path1" />
  </g>
  <g
     transform="translate(28.8795,161.2749)"
     id="g2"
     style="display:none">
    <a
       xlink:href="https://lilypond.org/"
       id="a1">
      <rect
         x="0"
         y="-0.47479999"
         width="50.361401"
         height="2.0023999"
         fill="none"
         stroke="none"
         stroke-width="0"
         id="rect1" />
    </a>
  </g>
  <g
     transform="translate(28.8795,161.2749)"
     id="g3"
     style="display:none">
    <text
       font-family="serif"
       font-size="2.2001px"
       text-anchor="start"
       fill="currentColor"
       id="text2"><tspan
         id="tspan2">Music engraving by LilyPond 2.24.4—www.lilypond.org</tspan></text>
  </g>
</svg>
