<?xml version="1.0" encoding="UTF-8" standalone="no"?>
<svg
   version="1.2"
   width="2.9311743mm"
   height="8.5404711mm"
   viewBox="0 0 1.6680001 4.8599996"
   id="svg3"
   sodipodi:docname="rest_sixtyfourth.svg"
   inkscape:version="1.4.2 (f4327f4, 2025-05-13)"
   xmlns:inkscape="http://www.inkscape.org/namespaces/inkscape"
   xmlns:sodipodi="http://sodipodi.sourceforge.net/DTD/sodipodi-0.dtd"
   xmlns:xlink="http://www.w3.org/1999/xlink"
   xmlns="http://www.w3.org/2000/svg"
   xmlns:svg="http://www.w3.org/2000/svg">
  <defs
     id="defs3" />
  <sodipodi:namedview
     id="namedview3"
     pagecolor="#505050"
     bordercolor="#eeeeee"
     borderopacity="1"
     inkscape:showpageshadow="0"
     inkscape:pageopacity="0"
     inkscape:pagecheckerboard="0"
     inkscape:deskcolor="#505050"
     inkscape:document-units="mm"
     inkscape:zoom="1.0467522"
     inkscape:cx="360.16164"
     inkscape:cy="535.46577"
     inkscape:window-width="933"
     inkscape:window-height="1211"
     inkscape:window-x="1423"
     inkscape:window-y="56"
     inkscape:window-maximized="0"
     inkscape:current-layer="svg3" />
  <style
     type="text/css"
     id="style1"><![CDATA[
tspan { white-space: pre; }
]]></style>
  <g
     transform="translate(0.268,1.82)"
     id="g1">
    <path
       transform="scale(0.004,-0.004)"
       d="m 60,-750 73,328 c -36,-13 -74,-24 -113,-24 -46,0 -87,33 -87,79 0,40 33,72 73,72 25,0 48,-15 56,-39 10,-28 5,-59 34,-59 17,0 56,55 60,73 l 33,147 c -35,-13 -71,-23 -109,-23 -46,0 -87,33 -87,79 0,40 32,72 72,72 25,0 49,-15 57,-39 10,-28 5,-59 34,-59 16,0 51,54 55,71 L 245,77 C 211,65 175,54 139,54 93,54 52,87 52,133 c 0,40 33,72 73,72 25,0 48,-15 56,-39 10,-28 5,-59 34,-59 15,0 48,52 52,68 l 34,151 c -33,-12 -67,-22 -102,-22 -46,0 -87,33 -87,79 0,40 32,72 72,72 25,0 49,-15 57,-39 10,-28 5,-59 34,-59 14,0 41,49 47,63 5,12 23,12 28,0 L 115,-750 c -8,-7 -18,-10 -28,-10 -10,0 -19,3 -27,10 z"
       fill="currentColor"
       id="path1" />
  </g>
  <g
     transform="translate(29.1475,161.2749)"
     id="g2"
     style="display:none">
    <a
       xlink:href="https://lilypond.org/"
       id="a1">
      <rect
         x="0"
         y="-0.47479999"
         width="50.361401"
         height="2.0023999"
         fill="none"
         stroke="none"
         stroke-width="0"
         id="rect1" />
    </a>
  </g>
  <g
     transform="translate(29.1475,161.2749)"
     id="g3"
     style="display:none">
    <text
       font-family="serif"
       font-size="2.2001px"
       text-anchor="start"
       fill="currentColor"
       id="text2"><tspan
         id="tspan2">Music engraving by LilyPond 2.24.4—www.lilypond.org</tspan></text>
  </g>
</svg>
