<?xml version="1.0" encoding="UTF-8" standalone="no"?>
<svg
   version="1.2"
   width="1.8697658mm"
   height="5.0384011mm"
   viewBox="0 0 1.064 2.8671285"
   id="svg3"
   sodipodi:docname="rest_quarter.svg"
   inkscape:version="1.4.2 (f4327f4, 2025-05-13)"
   xmlns:inkscape="http://www.inkscape.org/namespaces/inkscape"
   xmlns:sodipodi="http://sodipodi.sourceforge.net/DTD/sodipodi-0.dtd"
   xmlns:xlink="http://www.w3.org/1999/xlink"
   xmlns="http://www.w3.org/2000/svg"
   xmlns:svg="http://www.w3.org/2000/svg">
  <defs
     id="defs3" />
  <sodipodi:namedview
     id="namedview3"
     pagecolor="#505050"
     bordercolor="#eeeeee"
     borderopacity="1"
     inkscape:showpageshadow="0"
     inkscape:pageopacity="0"
     inkscape:pagecheckerboard="0"
     inkscape:deskcolor="#505050"
     inkscape:document-units="mm"
     inkscape:zoom="1.0467522"
     inkscape:cx="359.2063"
     inkscape:cy="535.46577"
     inkscape:window-width="933"
     inkscape:window-height="1211"
     inkscape:window-x="1220"
     inkscape:window-y="106"
     inkscape:window-maximized="0"
     inkscape:current-layer="svg3" />
  <style
     type="text/css"
     id="style1"><![CDATA[
tspan { white-space: pre; }
]]></style>
  <g
     transform="translate(0.092,1.584)"
     id="g1">
    <path
       transform="scale(0.004,-0.004)"
       d="m -23,-116 c 0,28 11,42 40,42 33,0 78,-13 119,-31 L 4,53 c -7,9 -10,17 -10,25 0,34 50,66 87,99 25,22 37,52 37,83 0,24 -8,49 -25,69 l -35,42 c -3,3 -4,7 -4,10 0,9 9,15 17,15 4,0 8,-1 11,-5 L 233,211 c 7,-9 10,-17 10,-25 0,-34 -50,-66 -87,-99 -25,-22 -37,-52 -37,-83 0,-24 7,-49 24,-69 l 84,-99 c 3,-3 4,-7 4,-10 0,-9 -8,-16 -16,-16 -4,0 -9,2 -12,6 -18,21 -63,38 -97,38 -41,0 -53,-26 -53,-67 0,-35 11,-74 28,-94 7,-8 -5,-19 -12,-11 -45,54 -92,148 -92,202 z"
       fill="currentColor"
       id="path1" />
  </g>
  <g
     transform="translate(28.9715,161.2964)"
     id="g2"
     style="display:none">
    <a
       xlink:href="https://lilypond.org/"
       id="a1">
      <rect
         x="0"
         y="-0.47479999"
         width="50.361401"
         height="2.0023999"
         fill="none"
         stroke="none"
         stroke-width="0"
         id="rect1" />
    </a>
  </g>
  <g
     transform="translate(28.9715,161.2964)"
     id="g3"
     style="display:none">
    <text
       font-family="serif"
       font-size="2.2001px"
       text-anchor="start"
       fill="currentColor"
       id="text2"><tspan
         id="tspan2">Music engraving by LilyPond 2.24.4—www.lilypond.org</tspan></text>
  </g>
</svg>
